# xmcd
#
# Track frame offsets:
#	150
#	16060
#	34530
#	54545
#	66900
#	83617
#	100080
#	122625
#	137470
#	156205
#	174117
#	192362
#
# Disc length: 2772 seconds
#
# Revision: 1
# Processed by: cddbd v1.5.2PL0 Copyright (c) Steve Scherf et al.
# Submitted via: EasyCDDAExtractor 12.0.1.1
#
DISCID=8a0ad20c
DTITLE=Anni Filt and Savannah Rose Band - Heart Over Mind
DYEAR=1995
DGENRE=Country
TTITLE0=So Good To Be Back
TTITLE1=Got On This Train To Ride
TTITLE2=God May Forgive You
TTITLE3=Jolene
TTITLE4=My Pride, My Weakness
TTITLE5=Why Have You Been Gone So Long
TTITLE6=But I Do
TTITLE7=Until A New Love Comes Around
TTITLE8=I'll Leave It All Up To You
TTITLE9=Walkaway Joe
TTITLE10=Rose Of Cimarron
TTITLE11=Why Not Me
EXTD=
EXTT0=
EXTT1=
EXTT2=
EXTT3=
EXTT4=
EXTT5=
EXTT6=
EXTT7=
EXTT8=
EXTT9=
EXTT10=
EXTT11=
PLAYORDER=
